<?xml version="1.0" encoding="UTF-8"?>
<svg id="Layer_1" data-name="Layer 1" xmlns="http://www.w3.org/2000/svg" xmlns:xlink="http://www.w3.org/1999/xlink" viewBox="0 0 502 232">
  <defs>
    <style>
      .cls-1 {
        filter: url(#drop-shadow-1);
      }

      .cls-2 {
        fill: #fff;
      }

      .cls-3 {
        fill: #b30f11;
      }
    </style>
    <filter id="drop-shadow-1" x="7" y="27" width="490" height="151" filterUnits="userSpaceOnUse">
      <feOffset dx="3" dy="4"/>
      <feGaussianBlur result="blur" stdDeviation="2"/>
      <feFlood flood-color="#000" flood-opacity=".8"/>
      <feComposite in2="blur" operator="in"/>
      <feComposite in="SourceGraphic"/>
    </filter>
  </defs>
  <rect class="cls-3" y="11.5" width="500" height="135.07"/>
  <g class="cls-1">
    <path class="cls-2" d="M10.48,31.26h56.45c19.33,0,33.73,2.78,43.2,8.35,9.47,5.57,14.21,15.52,14.21,29.86,0,15.87-5.76,26.82-17.28,32.83-10.75,5.5-25.79,8.26-45.12,8.26h-1.54v51.46h24v3.65H10.48v-3.65h12.48V34.91h-12.48v-3.65ZM60.4,34.91v72h4.03c7.68,0,12.99-2.62,15.94-7.87,2.94-5.25,4.42-13.76,4.42-25.54v-9.22c0-10.88-1.38-18.5-4.13-22.85-2.75-4.35-7.78-6.53-15.07-6.53h-5.18Z"/>
    <path class="cls-2" d="M188.46,163.55c6.4,0,12.06-1.73,16.99-5.18,4.93-3.46,7.39-8.67,7.39-15.65s-2.66-12.32-7.97-16.03c-5.31-3.71-12.86-6.94-22.66-9.7-9.79-2.75-16.9-5.15-21.31-7.2-4.42-2.05-8.61-4.73-12.58-8.06-7.94-6.65-11.9-16.96-11.9-30.91,0-11.39,4.06-21.18,12.19-29.38,8.13-8.19,19.23-12.29,33.31-12.29,6.78,0,13.85.99,21.22,2.98,7.36,1.99,11.93,2.98,13.73,2.98s3.39-1.28,4.8-3.84h2.11l1.34,38.78h-3.07c-6.14-11.14-12.58-20.06-19.3-26.78-6.72-6.72-14.02-10.08-21.89-10.08s-13.99,1.82-18.34,5.47c-4.35,3.65-6.53,8.51-6.53,14.59s2.59,10.75,7.78,14.02c5.18,3.26,11.55,5.92,19.1,7.97,7.55,2.05,12.51,3.46,14.88,4.22,2.37.77,5.31,1.82,8.83,3.17,3.52,1.34,6.4,2.75,8.64,4.22,2.24,1.47,4.61,3.33,7.1,5.57,2.5,2.24,4.45,4.7,5.86,7.39,3.46,6.14,5.18,13.44,5.18,21.89,0,13.82-4.32,24.93-12.96,33.31-8.64,8.38-20,12.58-34.08,12.58-7.3,0-15.65-.96-25.06-2.88-9.41-1.92-14.62-2.88-15.65-2.88-1.79,0-3.52,1.92-5.18,5.76h-2.69l-1.92-45.7h3.26c5.63,11.14,12.83,20.87,21.6,29.18,8.77,8.32,18.02,12.48,27.74,12.48Z"/>
    <path class="cls-2" d="M354.73,31.26l1.92,48.19h-3.65c-5.63-17.02-10.63-28.64-14.98-34.85-4.35-6.21-10.63-9.31-18.82-9.31h-2.3v126.34h16.32v4.03h-70.08v-4.03h16.32V35.29h-2.5c-8.19,0-14.53,3.23-19.01,9.7-4.48,6.46-9.41,17.95-14.78,34.46h-3.65l1.92-48.19h113.28Z"/>
    <path class="cls-2" d="M477.04,34.91v130.75h-26.88l-65.86-124.22v120.58h10.56v3.65h-26.3v-3.65h10.56V34.91h-10.56v-3.65h52.99l50.3,96.38V34.91h-10.56v-3.65h26.3v3.65h-10.56Z"/>
  </g>
</svg>