<?xml version="1.0" encoding="UTF-8"?>
<svg id="Layer_2" data-name="Layer 2" xmlns="http://www.w3.org/2000/svg" xmlns:xlink="http://www.w3.org/1999/xlink" viewBox="0 0 416.02 413.13">
  <defs>
    <radialGradient id="radial-gradient" cx="208.01" cy="206.57" fx="208.01" fy="191.52" r="238.6" gradientUnits="userSpaceOnUse">
      <stop offset="0" stop-color="#67c400"/>
      <stop offset=".25" stop-color="#6ac501"/>
      <stop offset=".48" stop-color="#75c904"/>
      <stop offset=".69" stop-color="#88d109"/>
      <stop offset=".91" stop-color="#a2db10"/>
      <stop offset=".93" stop-color="#a6dd12"/>
    </radialGradient>
  </defs>
  <g id="Layer_1-2" data-name="Layer 1">
    <path d="m208.98,371.85c1.17-2.12,20.39-5.08,20.57-6.15l-.17-95.51c-.19-.88-.79-1.1-1.53-1.4-2.61-1.08-18.86-4.03-18.86-5.56v-41.5h81.54l57.13,99.61v-51.27c0-1.99-21.48-5.22-21.48-6.35v-41.99h89.84v41.5c0,1.83-20.51,4.83-20.51,6.84v143.07h-55.18l-62.99-105.47v58.59l20.51,4.88v41.99h-88.87m6.36-313.46l-42.01,35.14h-67.38c-.1,0-1.46,1.36-1.46,1.46v18.55c0,1.25,19.58,5.95,22.46,6.35v44.92H20.51v-44.92c0-1.17,20.38-4.32,22.52-6.44V51.42c-.22-1.29-22.52-4.74-22.52-6.93V.05h152.83c.35,0,3.89,4.02,4.9,4.86,12.42,10.34,25.21,20.34,37.08,31.28.85,21.03.8,42.38.03,63.48Zm-61.25-42.79c-.26-.44-7.61-5.92-8.1-6.05h-40.04c-.1,0-1.46,1.36-1.46,1.46v31.74h41.5c.53,0,8.2-6.02,8.33-6.53.39-1.62.3-19.73-.22-20.62ZM0,221.73v79.1h41.02l5.05-32.55c.18-.56.91-1.63,1.3-1.63h20.02v99.61l-23.44,4.88v41.99h103.52v-41.99l-23.44-4.88v-99.61h20.02c.39,0,1.12,1.07,1.3,1.63l5.05,32.55h41.02v-79.1H0Zm407.7-109.36l-34.37-27.16-69.86-11.2c-11.64-5.09-9.94-18.15.95-22.95l39.67-.28c1.94.46,5.37,21.53,6.49,21.53h55.67v-38.57L368.12,1.56l-5.29-1.56-87.74.24-38.82,32.47-.97,2.93.24,55.04,35.03,27.95,68.55,11.53c1.51.44,6.46,3.45,7.08,4.64.81,1.58.83,12.09.28,13.98-.67,2.31-5.52,4.61-7.33,6.35-12.38-.16-25.04.9-37.4.19-1.79-.1-4.07.6-5.39-.96-1.87-2.2-4.02-16.74-5.35-20.52h-55.66v37.6l41.7,34.47c12.13.4,24.3.14,36.42.19,17.67.08,35.37.11,53.04-.18l41.51-34.66c.09-19.6.72-39.41-.32-58.89Z" fill="url(#radial-gradient)"/>
  </g>
</svg>